<mxfile host="app.diagrams.net" modified="2022-02-26T17:51:58.896Z" agent="5.0 (Macintosh; Intel Mac OS X 10_15_7) AppleWebKit/537.36 (KHTML, like Gecko) Chrome/98.0.4758.87 Safari/537.36" etag="Hy7ydOqA8SBVUYSM5etB" version="16.6.4" type="github">
  <diagram id="2oeUySleaV4vJK9pJLwO" name="Page-1">
    <mxGraphModel dx="1420" dy="805" grid="0" gridSize="10" guides="1" tooltips="1" connect="1" arrows="1" fold="1" page="1" pageScale="1" pageWidth="1169" pageHeight="827" math="0" shadow="0">
      <root>
        <mxCell id="0" />
        <mxCell id="1" parent="0" />
        <mxCell id="Drk82KQ6Ul8CciXEeTbn-1" value="&lt;font style=&quot;font-size: 35px&quot;&gt;Add Liquidity&lt;/font&gt;" style="text;html=1;resizable=0;autosize=1;align=center;verticalAlign=middle;points=[];fillColor=none;strokeColor=none;rounded=0;" parent="1" vertex="1">
          <mxGeometry x="480" y="36" width="210" height="26" as="geometry" />
        </mxCell>
      </root>
    </mxGraphModel>
  </diagram>
</mxfile>
